<svg xmlns="http://www.w3.org/2000/svg"  viewBox="0 0 100 100" width="100px" height="100px"><path fill="#924444" d="M82.388,53.918c0,10.359-6.759,19.396-16.678,23.966c-4.438,2.042-9.522,3.218-14.914,3.218 c-5.863,0-11.358-1.381-16.06-3.776c-9.301-4.731-15.531-13.445-15.531-23.407c0-4.776,1.44-9.272,3.967-13.166 c3.174-4.952,8.111-8.949,14.077-11.402c4.1-1.675,8.699-2.615,13.548-2.615c4.247,0,8.287,0.72,11.976,2.013 c6.568,2.322,12.02,6.495,15.487,11.755C80.889,44.456,82.388,49.04,82.388,53.918z"/><path fill="#fff" d="M66.064,78.163c0,0,13.683-14.813-4.514-22.041c-5.421,1.112-11.702,4.263-11.702,4.263 s-5.808-3.151-11.228-4.263c-18.198,7.228-4.514,22.041-4.514,22.041S50.948,86.827,66.064,78.163z"/><path fill="#924444" d="M70,84l-8.713,0.041L60,90l-9.939-4.49L41,89l-3.135-4.959H27.021l8.14-6.304 c4.702,2.131,10.198,3.365,16.06,3.365c5.393,0,10.477-1.043,14.914-2.865L71,82L70,84z"/><path fill="#924444" d="M38.262,23.722l-1.014,5.628c-5.966,2.454-10.903,6.451-14.077,11.402l-7.479-1.352l-2.953-27.007 l-0.176-1.572l1.352,0.676L38.262,23.722z"/><path fill="#924444" d="M87.56,10.821l-0.176,1.572L84.43,39.401l-6.171,1.102c-3.468-5.26-8.919-9.433-15.487-11.755 l-0.911-5.025l24.348-12.225L87.56,10.821z"/><path fill="#fff" d="M58.143,45.102c0,2.571-1.793,4.805-4.408,5.878v2.204h-7.347V50.98 c-2.616-1.073-4.408-3.306-4.408-5.878c0-3.659,3.615-6.612,8.082-6.612S58.143,41.443,58.143,45.102z"/><polygon points="57.905,90.41 50.077,86.629 42.913,90.367 41.988,88.594 50.043,84.391 58.775,88.609"/><path d="M39.138,89.638l-1.933-4.598H24.094l10.93-8.459l0.548,0.248c4.721,2.14,10.132,3.271,15.647,3.271 c5.067,0,10.095-0.963,14.541-2.785l0.577-0.236l4.926,4.374l-1.328,1.496l-3.998-3.55C61.399,81.167,56.326,82.1,51.22,82.1 c-5.585,0-11.075-1.106-15.92-3.203l-5.354,4.144h8.589l2.447,5.822L39.138,89.638z"/><polygon points="60.821,89.286 58.899,88.733 60.544,83.017 70.051,83.31 69.989,85.31 62.036,85.063"/><path d="M53.735,53.684h-7.347c-0.276,0-0.5-0.224-0.5-0.5v-1.875c-2.729-1.235-4.408-3.587-4.408-6.207 c0-3.921,3.85-7.111,8.582-7.111s8.582,3.19,8.582,7.111c0,2.62-1.68,4.972-4.408,6.207v1.875 C54.235,53.46,54.011,53.684,53.735,53.684z M46.888,52.684h6.347v-1.704c0-0.203,0.123-0.386,0.311-0.463 c2.527-1.036,4.098-3.111,4.098-5.415c0-3.37-3.401-6.111-7.582-6.111s-7.582,2.741-7.582,6.111c0,2.304,1.57,4.379,4.098,5.415 c0.188,0.077,0.311,0.26,0.311,0.463V52.684z"/><ellipse cx="46.388" cy="45.51" rx="1.796" ry="1.469" transform="rotate(-68.345 46.388 45.511)"/><ellipse cx="53.735" cy="45.51" rx="1.469" ry="1.796" transform="rotate(-21.655 53.74 45.513)"/><path d="M62.649,72.2c-1.59,0.33-3.29-1.38-3.79-3.81c-0.11-0.5-0.314-1.03-0.473-1.922l1.483-0.458l3.54-1.41 c0.56,0.67,0.99,1.57,1.2,2.6C65.119,69.63,64.229,71.87,62.649,72.2z"/><ellipse cx="49.947" cy="74.99" rx="1.949" ry="1.54"/><path d="M66.064,78.663c-0.121,0-0.243-0.044-0.339-0.133c-0.203-0.188-0.216-0.503-0.028-0.706 c0.06-0.065,6.006-6.604,4.581-12.859c-0.796-3.497-3.748-6.297-8.774-8.322c-5.259,1.112-11.37,4.158-11.432,4.189 c-0.146,0.072-0.319,0.07-0.462-0.008c-0.057-0.031-5.702-3.071-10.945-4.182c-5.026,2.025-7.978,4.825-8.774,8.322 c-1.424,6.256,4.521,12.794,4.582,12.859c0.188,0.203,0.175,0.519-0.028,0.706c-0.203,0.188-0.519,0.177-0.706-0.028 c-0.261-0.281-6.362-6.983-4.823-13.755c0.88-3.872,4.083-6.93,9.52-9.09c0.09-0.036,0.189-0.046,0.285-0.025 c4.888,1.004,9.99,3.589,11.137,4.191c1.203-0.587,6.692-3.186,11.592-4.191c0.095-0.019,0.195-0.01,0.285,0.025 c5.437,2.16,8.64,5.218,9.52,9.09c1.539,6.771-4.562,13.474-4.823,13.755C66.333,78.609,66.199,78.663,66.064,78.663z"/><path d="M50.5,82.102c-5.798,0-11.492-1.337-16.467-3.866C24.144,73.215,18,63.948,18,54.051c0-4.786,1.424-9.505,4.118-13.646 c3.247-5.057,8.396-9.223,14.494-11.727C40.969,26.9,45.641,26,50.5,26c4.236,0,8.364,0.692,12.271,2.059 c6.694,2.362,12.356,6.656,15.946,12.092C81.518,44.352,83,49.159,83,54.051c0,10.39-6.595,19.876-17.211,24.757 C61.1,80.963,55.813,82.102,50.5,82.102z M50.5,28c-4.599,0-9.017,0.851-13.131,2.528c-5.72,2.349-10.541,6.242-13.572,10.961 C21.312,45.311,20,49.652,20,54.051c0,9.14,5.724,17.724,14.939,22.401c4.696,2.388,10.077,3.649,15.561,3.649 c5.027,0,10.024-1.076,14.454-3.11C74.851,72.44,81,63.65,81,54.051c0-4.495-1.366-8.92-3.949-12.795 c-3.354-5.078-8.659-9.093-14.942-11.31C58.417,28.655,54.51,28,50.5,28z"/><path d="M23.652,41.856l-8.873-1.604L11.364,9.104l2.998,1.498l25.017,12.562l-1.244,6.903l-0.507,0.208 c-5.739,2.36-10.574,6.272-13.615,11.018L23.652,41.856z M16.605,38.549l6.094,1.103c3.18-4.693,7.992-8.574,13.661-11.012 l0.785-4.358L13.761,12.539L16.605,38.549z"/><path d="M18.824,38.032c-0.252,0-0.469-0.189-0.497-0.445l-2.25-20.531c-0.02-0.183,0.061-0.361,0.211-0.466 c0.151-0.104,0.346-0.118,0.51-0.037l18.75,9.412c0.247,0.124,0.347,0.425,0.223,0.672s-0.425,0.347-0.671,0.223l-17.926-9 l0.06,0.533l2.087,19.085c0.03,0.274-0.168,0.521-0.443,0.552C18.86,38.031,18.842,38.032,18.824,38.032z"/><path d="M81.075,38.032c-0.018,0-0.036-0.001-0.055-0.003c-0.275-0.03-0.473-0.277-0.443-0.552l2.147-19.618l-17.926,9 c-0.245,0.125-0.546,0.024-0.671-0.223c-0.124-0.247-0.024-0.548,0.222-0.672l18.75-9.412c0.164-0.082,0.359-0.068,0.51,0.037 c0.15,0.105,0.231,0.284,0.211,0.466l-0.163,1.448l-2.087,19.083C81.544,37.843,81.327,38.032,81.075,38.032z"/><path d="M77.786,41.604l-0.362-0.55c-3.362-5.101-8.684-9.136-14.985-11.363l-0.547-0.193l-1.148-6.332L88.759,9.104l-0.381,3.4 l-3.035,27.748L77.786,41.604z M63.653,28.004c6.247,2.326,11.559,6.346,15.07,11.4l4.795-0.856l2.844-26.009L62.978,24.28 L63.653,28.004z"/><path d="M58.879,66.91c-0.198,0-0.385-0.118-0.463-0.312c-0.104-0.256,0.02-0.548,0.276-0.651l7.352-2.94 c0.256-0.103,0.547,0.021,0.65,0.278c0.103,0.256-0.022,0.547-0.278,0.649l-7.349,2.94C59.005,66.898,58.941,66.91,58.879,66.91z"/><path d="M77.949,54.5c-0.276,0-0.5-0.224-0.5-0.5c0-8.784-5.632-16.677-14.699-20.599c-0.253-0.109-0.37-0.404-0.26-0.657 c0.11-0.255,0.405-0.371,0.658-0.261C72.586,36.566,78.449,44.811,78.449,54C78.449,54.276,78.226,54.5,77.949,54.5z"/><path d="M60.199,32.415c-0.05,0-0.101-0.008-0.151-0.023C57.136,31.468,54.075,31,50.949,31c-0.276,0-0.5-0.224-0.5-0.5 s0.224-0.5,0.5-0.5c3.228,0,6.391,0.484,9.401,1.438c0.263,0.083,0.409,0.364,0.325,0.628 C60.608,32.279,60.412,32.415,60.199,32.415z"/><circle cx="89" cy="9.102" r="3.673" fill="#924444"/><circle cx="11" cy="9.102" r="3.673" fill="#924444"/><circle cx="26.551" cy="84.041" r="2.939" fill="#fff"/><circle cx="40.551" cy="92.041" r="2.939" fill="#fff"/><circle cx="60.551" cy="92.041" r="2.939" fill="#fff"/><circle cx="73.551" cy="84.041" r="2.939" fill="#fff"/><path d="M26.551,87.979c-2.172,0-3.938-1.767-3.938-3.938s1.767-3.939,3.938-3.939s3.939,1.768,3.939,3.939 S28.723,87.979,26.551,87.979z M26.551,82.102c-1.069,0-1.938,0.87-1.938,1.939s0.87,1.938,1.938,1.938 c1.069,0,1.939-0.869,1.939-1.938S27.62,82.102,26.551,82.102z"/><path d="M63.146,67.6c-0.198,0-0.386-0.119-0.464-0.314c-0.103-0.256,0.022-0.547,0.278-0.649l2.82-1.13 c0.257-0.103,0.547,0.021,0.65,0.278c0.103,0.256-0.022,0.547-0.278,0.649l-2.82,1.13C63.271,67.588,63.208,67.6,63.146,67.6z"/><path d="M38.442,72.2c1.59,0.33,3.29-1.38,3.79-3.81c0.11-0.5,0.314-1.03,0.473-1.922l-1.483-0.458l-3.54-1.41 c-0.56,0.67-0.99,1.57-1.2,2.6C35.972,69.63,36.862,71.87,38.442,72.2z"/><path d="M42.212,66.91c-0.062,0-0.126-0.012-0.188-0.036l-7.349-2.94c-0.256-0.103-0.381-0.394-0.278-0.649 c0.103-0.257,0.394-0.382,0.65-0.278l7.352,2.94c0.256,0.104,0.379,0.396,0.276,0.651C42.597,66.792,42.41,66.91,42.212,66.91z"/><path d="M37.945,67.6c-0.062,0-0.125-0.012-0.186-0.036l-2.82-1.13c-0.256-0.103-0.381-0.394-0.278-0.649 c0.103-0.257,0.395-0.381,0.65-0.278l2.82,1.13c0.256,0.103,0.381,0.394,0.278,0.649C38.331,67.48,38.144,67.6,37.945,67.6z"/><path fill="none" stroke="#000" stroke-miterlimit="10" stroke-width="2" d="M92.017,9.252c0.134,1.943-1.313,3.63-3.24,3.763 c-0.56,0.039-1.091-0.059-1.563-0.258c-0.442-0.181-0.832-0.452-1.17-0.785c-0.564-0.577-0.933-1.359-0.994-2.24 c-0.134-1.943,1.314-3.621,3.24-3.754S91.883,7.309,92.017,9.252z"/><path fill="none" stroke="#000" stroke-miterlimit="10" stroke-width="2" d="M15.017,9.252c0.134,1.943-1.313,3.63-3.24,3.763 c-0.56,0.039-1.091-0.059-1.563-0.258c-0.442-0.181-0.832-0.452-1.17-0.785c-0.564-0.577-0.933-1.359-0.994-2.24 c-0.134-1.943,1.314-3.621,3.24-3.754S14.883,7.309,15.017,9.252z"/><g><path d="M59.995,95.996c-2.104,0-3.872-1.648-3.99-3.772c-0.07-1.244,0.434-2.429,1.383-3.248c0.378-0.339,0.852-0.604,1.393-0.775 c0.27-0.1,0.619-0.168,0.994-0.188c1.055-0.068,2.088,0.298,2.886,1.011c0.797,0.712,1.269,1.69,1.329,2.755 c0.123,2.199-1.568,4.089-3.769,4.212C60.145,95.994,60.07,95.996,59.995,95.996z M60,90.005c-0.038,0-0.076,0.001-0.114,0.003 c-0.18,0.011-0.334,0.039-0.46,0.085c-0.31,0.099-0.537,0.224-0.716,0.385c-0.489,0.422-0.742,1.014-0.707,1.635 c0.061,1.098,0.995,1.944,2.106,1.881c1.1-0.062,1.945-1.006,1.884-2.104l0,0c-0.03-0.53-0.266-1.019-0.664-1.374 C60.958,90.184,60.49,90.005,60,90.005z"/></g><g><path d="M41,95.98c-2.206,0-4-1.768-4-3.94c0-1.904,1.381-3.534,3.283-3.874c0.998-0.175,2.079,0.032,2.958,0.607 C44.347,89.519,45,90.736,45,92.04C45,94.213,43.206,95.98,41,95.98z M41,90.1c-0.125,0-0.25,0.016-0.37,0.036 C39.688,90.304,39,91.105,39,92.04c0,1.07,0.897,1.94,2,1.94s2-0.87,2-1.94c0-0.638-0.323-1.235-0.865-1.601 C41.799,90.22,41.402,90.1,41,90.1z"/></g><g><path d="M73,87.98c-2.022,0-3.757-1.558-3.97-3.555C69.005,84.278,69,84.141,69,83.99c0-0.699,0.182-1.372,0.54-2 C70.263,80.758,71.587,80,73,80c2.206,0,4,1.79,4,3.99S75.206,87.98,73,87.98z M73,82c-0.708,0-1.37,0.38-1.729,0.992 C71.093,83.303,71,83.643,71,83.99c0,0.036-0.002,0.069,0.002,0.104c0.109,1.101,0.98,1.887,1.998,1.887c1.103,0,2-0.893,2-1.99 S74.103,82,73,82z"/></g></svg>